<svg width="95" height="67" viewBox="0 0 95 67" fill="none" xmlns="http://www.w3.org/2000/svg">
<path d="M5.90549 8.06005C11.1759 6.75391 16.5923 11.3727 19.9704 14.8053C22.777 17.651 25.3614 20.6924 27.7299 23.8978C28.4665 20.9511 29.1967 18.0044 29.9333 15.0577C30.7207 11.8901 31.343 8.60901 32.7653 5.63707C33.8003 3.47279 35.3434 1.26434 37.6928 0.380955C40.2645 -0.584453 43.1473 0.437744 45.3952 1.74388C57.9361 9.04439 51.4339 27.7973 45.4015 37.2558C43.8013 39.7608 42.017 42.127 40.1248 44.4048C41.4075 44.5373 42.6838 44.6572 43.941 44.7708C53.5611 45.6542 63.2255 46.3357 72.401 49.5663C81.2654 52.6897 90.0218 58.0783 94.8541 66.3127C95.4954 67.4043 93.8445 66.9121 93.3492 66.7354C92.2443 66.3442 90.5235 65.4861 89.8949 64.4197C84.8023 55.7436 75.6395 51.9325 66.0766 50.1468C56.7995 48.4116 47.2874 48.3233 37.9722 46.8972C34.8925 50.3487 31.5906 53.6109 28.3077 56.8479C27.2156 57.9269 22.504 54.3681 23.0437 53.8318C25.7106 51.2006 28.4792 48.4495 31.1398 45.5595C30.8921 45.4964 30.6445 45.446 30.3968 45.3829C21.3991 43.0545 12.3569 38.4294 6.19123 31.3813C3.18775 27.9424 0.806564 23.7022 0.139832 19.1465C-0.501503 14.7611 1.0034 9.27785 5.89913 8.06005H5.90549ZM44.1633 2.92383C44.2839 2.98693 44.3982 3.05633 44.5189 3.11943C44.3792 2.95538 44.2585 2.87335 44.1633 2.92383ZM7.78503 28.5545C9.74078 32.1385 12.6427 35.1798 16.0462 37.4451C21.1134 40.8208 26.9997 42.4993 33.0193 43.4899C40.855 34.6056 47.3573 24.4215 47.0906 12.3192C47.0525 10.6976 46.9128 9.06963 46.4937 7.49848C46.3921 7.12619 45.4015 4.42557 44.6903 3.34659C44.3284 3.31504 43.9664 3.32766 43.6045 3.38445C42.8044 3.50433 42.017 3.83876 41.3567 4.29938C40.2645 5.05025 39.4263 6.17971 38.7532 7.30287C36.9499 10.319 36.2641 13.821 35.4323 17.1778C34.3147 21.6641 33.1971 26.1567 32.0732 30.643C31.7938 31.7536 27.2981 28.7311 26.9616 28.1885C24.174 23.658 21.0054 19.361 17.3797 15.4552C15.9763 13.9408 14.1412 11.2402 11.8997 11.215C9.6138 11.1897 7.60725 12.8619 6.50872 14.7422C4.04498 18.9446 5.60705 24.5603 7.79139 28.5545H7.78503Z" fill="#B2294B"/>
</svg>
