<svg width="46" height="50" viewBox="0 0 46 50" fill="none" xmlns="http://www.w3.org/2000/svg">
<path d="M30.3848 6.26752L30.4632 6.34146C32.496 8.29939 33.7614 11.0485 33.7614 14.0912C33.7614 20.0289 28.9407 24.8496 23.0029 24.8496C17.0652 24.8496 12.2445 20.0289 12.2445 14.0912C12.2445 8.15342 17.0652 3.33273 23.0029 3.33273C24.764 3.33273 26.4252 3.75565 27.8923 4.50632L27.8924 4.50636C28.5023 4.81795 29.2497 4.57661 29.5617 3.96662C29.8737 3.3572 29.6332 2.60967 29.0232 2.2976C27.2164 1.37243 25.1703 0.85 23.003 0.85C15.6949 0.85 9.76211 6.78356 9.76211 14.0918C9.76211 21.3995 15.6953 27.3327 23.003 27.3327C30.3106 27.3327 36.2448 21.3991 36.2448 14.0918C36.2448 10.299 34.6456 6.87595 32.0878 4.46191L32.0878 4.46188C31.5901 3.99238 30.8037 4.01471 30.334 4.51264L30.334 4.51268C29.8639 5.01147 29.8857 5.79669 30.3848 6.26752Z" fill="white" stroke="white" stroke-width="0.3"/>
<path d="M5.3593 46.6686L5.35896 46.6672H5.54888C6.23366 46.6672 6.78954 47.223 6.78954 47.9078C6.78954 48.593 6.23371 49.1489 5.54888 49.1489H3.99434C3.19334 49.1489 2.4269 48.8152 1.88231 48.2271C1.33664 47.6379 1.06312 46.8495 1.12398 46.0497L1.12473 46.0399L1.12506 46.0399C1.12542 46.0373 1.12563 46.0358 1.12574 46.0349V46.0296L1.12648 46.0222C1.60313 41.2257 3.754 35.1242 6.07599 31.8808C7.2979 30.1722 8.69066 29.2131 9.91234 29.2131H13.8779C14.3345 29.2131 14.7846 29.3224 15.1867 29.5294C17.5333 30.7224 20.1901 31.3948 23.0032 31.3948C25.8167 31.3948 28.4737 30.7223 30.8169 29.5315C31.223 29.3235 31.6729 29.2153 32.1276 29.2152M5.3593 46.6686L32.1277 29.3652M5.3593 46.6686H3.99356C3.88381 46.6686 3.77861 46.6228 3.70301 46.5422C3.63227 46.4645 3.59486 46.3651 3.59761 46.2635C4.03849 41.8578 5.98568 36.2708 8.09395 33.3248L8.09399 33.3247C8.49478 32.764 8.89081 32.3132 9.28146 32.0096L9.28161 32.0095C9.53808 31.8096 9.7315 31.6953 9.91263 31.6953H13.8761C13.9378 31.6953 13.9976 31.7096 14.0515 31.7365C14.0545 31.7383 14.0582 31.7404 14.0623 31.7425C16.7467 33.1077 19.7863 33.8773 23.0036 33.8773C26.2098 33.8773 29.2384 33.113 31.9173 31.7577H31.9184L31.9511 31.7406C32.006 31.7118 32.067 31.6974 32.1302 31.6974L32.1324 31.6974L32.1327 31.6974C32.6699 31.6963 33.6602 31.6958 34.5164 31.6955L35.6264 31.6952L35.9682 31.6952L36.0617 31.6952L36.0861 31.6952H36.0923H36.0938H36.0942H36.0943C36.2755 31.6952 36.4694 31.8096 36.7253 32.0094L36.7255 32.0095C37.1161 32.3132 37.5114 32.764 37.9134 33.3248C40.0209 36.2702 41.9673 41.8583 42.4019 46.2507C42.4083 46.3553 42.3709 46.459 42.2987 46.5367L42.2982 46.5372C42.2251 46.6167 42.1212 46.6623 42.0126 46.6623H42.0115H42.0114C38.3673 46.665 26.7027 46.6663 17.5365 46.6672C15.5734 46.6674 13.7248 46.6676 12.0942 46.6678C11.4091 46.6678 10.8532 47.2236 10.8532 47.9085C10.8532 48.5936 11.4091 49.1495 12.0942 49.1495C13.719 49.1493 15.5602 49.1491 17.5155 49.1489C26.6854 49.1479 38.3664 49.1467 42.0135 49.144C42.8125 49.144 43.5766 48.8102 44.12 48.2233L44.1201 48.2233C44.6631 47.6363 44.937 46.849 44.8762 46.0514L44.8765 46.0513L44.8753 46.0431C44.8753 46.0426 44.8752 46.0418 44.8751 46.0406C44.8749 46.038 44.8745 46.0309 44.8734 46.0226M5.3593 46.6686L44.8734 46.0226M32.1276 29.2152C32.1276 29.2152 32.1277 29.2152 32.1277 29.2152V29.3652M32.1276 29.2152C32.1275 29.2152 32.1275 29.2152 32.1274 29.2152L32.1277 29.3652M32.1276 29.2152C32.6662 29.2141 33.6578 29.2136 34.5146 29.2133L35.6257 29.2131L35.9678 29.213L36.0613 29.213L36.0857 29.213L36.092 29.213L36.0935 29.213H36.0939H36.0941C37.3158 29.213 38.7089 30.1721 39.9308 31.8808M32.1277 29.3652C33.2045 29.363 36.0941 29.363 36.0941 29.363C37.2418 29.363 38.5957 30.2717 39.8088 31.968M39.9308 31.8808C39.9308 31.8808 39.9308 31.8808 39.9308 31.8807L39.8088 31.968M39.9308 31.8808C42.2513 35.1237 44.4019 41.2248 44.8734 46.0226M39.9308 31.8808L39.8088 31.968M39.8088 31.968L44.8734 46.0226M44.8734 46.0226C44.8733 46.0213 44.8731 46.02 44.8729 46.0186L44.7244 46.0398L44.8737 46.0251C44.8736 46.0243 44.8735 46.0235 44.8734 46.0226ZM31.945 31.7436C31.947 31.7426 31.9491 31.7415 31.951 31.7404C31.9568 31.7372 31.9611 31.7344 31.9569 31.737C31.9564 31.7373 31.9542 31.7386 31.951 31.7403C31.9492 31.7412 31.9472 31.7423 31.9449 31.7434L31.8815 31.6185L31.945 31.7436Z" fill="white" stroke="white" stroke-width="0.3"/>
<path d="M8.82112 49.1499C9.50664 49.1499 10.0622 48.5944 10.0622 47.9089C10.0622 47.2238 9.50668 46.6679 8.82112 46.6679C8.13591 46.6679 7.58047 47.2238 7.58047 47.9089C7.58047 48.5944 8.13594 49.1499 8.82112 49.1499Z" fill="white" stroke="white" stroke-width="0.3"/>
</svg>
