<svg width="53" height="47" viewBox="0 0 53 47" fill="none" xmlns="http://www.w3.org/2000/svg">
<path fill-rule="evenodd" clip-rule="evenodd" d="M26.495 0C16.3204 0 8.04235 8.25689 8.04235 18.4084C8.04235 21.143 8.6415 23.7388 9.71818 26.0752L1.12535 34.6681C0.754165 35.0392 0.602051 35.5757 0.722816 36.0859C0.843581 36.5961 1.22027 37.0079 1.71858 37.1745L7.82875 39.231L9.8813 45.3384C10.0495 45.8372 10.4652 46.213 10.9792 46.3314C11.4936 46.4493 12.0321 46.2933 12.4025 45.9184L22.0423 36.2839C23.4685 36.6381 24.9597 36.8283 26.4944 36.8283C28.03 36.8283 29.522 36.6385 30.9495 36.2839L40.5982 45.9184C40.9685 46.2874 41.5037 46.44 42.0139 46.3221C42.5241 46.2041 42.9372 45.8321 43.1075 45.3384L45.1719 39.231L51.2792 37.1745C51.7779 37.0083 52.155 36.5971 52.2766 36.0868C52.3978 35.5766 52.2461 35.0397 51.8753 34.6682L43.2766 26.0812C44.3562 23.7432 44.9583 21.1452 44.9583 18.4085C44.9583 8.25744 36.669 0 26.495 0ZM26.495 3.03001C35.028 3.03001 41.919 9.89407 41.919 18.4084C41.919 21.069 41.2482 23.5689 40.0622 25.7497V25.7527C40.0529 25.7683 40.044 25.7839 40.0356 25.8C38.1385 29.2573 34.9483 31.9048 31.1106 33.0998C31.0038 33.1193 30.8991 33.1501 30.7991 33.1916C29.433 33.5855 27.9902 33.7952 26.4953 33.7952C24.8953 33.7952 23.3529 33.5547 21.9038 33.1058C21.9021 33.1053 21.8995 33.1062 21.8978 33.1058C18.055 31.9141 14.8648 29.2641 12.9669 25.803C12.9271 25.7062 12.8775 25.614 12.8186 25.5278C11.708 23.4003 11.0805 20.979 11.0805 18.4085C11.0805 9.89456 17.9614 3.03001 26.495 3.03001ZM26.498 6.9832C25.8496 6.9832 25.2725 7.39028 25.0594 7.99814L23.0602 13.706L16.9738 13.8274C16.3267 13.8421 15.7601 14.2611 15.5607 14.8719C15.3611 15.4827 15.5721 16.1518 16.0869 16.5408L20.9365 20.1921L19.1747 25.977C18.9887 26.5924 19.2149 27.2578 19.7395 27.6348C20.2641 28.0118 20.9712 28.0187 21.5031 27.6517L26.498 24.2015L31.493 27.6517C32.0247 28.0212 32.7337 28.0157 33.2595 27.6378C33.7853 27.2603 34.012 26.5933 33.8243 25.9769L32.0594 20.1921L36.909 16.5407C37.4238 16.1518 37.6348 15.4826 37.4353 14.8718C37.2357 14.261 36.6692 13.8421 36.0222 13.8273L29.9358 13.706L27.9366 7.99807C27.7239 7.3902 27.1463 6.98278 26.498 6.9832ZM26.498 13.0995L27.4056 15.6916C27.6153 16.2867 28.1759 16.6904 28.8115 16.7035L31.5848 16.7568L29.3751 18.4197C28.8674 18.8019 28.6534 19.4571 28.8382 20.062L29.639 22.6867L27.37 21.1213C26.8467 20.7595 26.1521 20.7595 25.6288 21.1213L23.3598 22.6867L24.1576 20.062C24.3432 19.4575 24.1301 18.8023 23.6237 18.4197L21.414 16.7568L24.1814 16.7035C24.8183 16.6917 25.3802 16.288 25.5903 15.6916L26.498 13.0995ZM41.7235 28.8058L47.9968 35.0818L43.4913 36.5909C43.0392 36.7439 42.6853 37.0998 42.5362 37.5525L41.0116 42.0502L34.1302 35.1764C37.203 33.7771 39.8281 31.5584 41.7235 28.8058ZM11.2768 28.8087C13.1713 31.5618 15.7942 33.7807 18.8671 35.1795L11.9768 42.0621L10.4641 37.5526C10.3154 37.1007 9.96282 36.7444 9.51197 36.5909L5.00648 35.0819L11.2768 28.8087Z" fill="white"/>
</svg>
