<svg width="48" height="48" viewBox="0 0 48 48" fill="none" xmlns="http://www.w3.org/2000/svg">
<path d="M0.707085 29.9744L4.70991 25.9711L11.0138 32.2749L11.3675 32.6287L11.7211 32.2747L17.8213 26.1669L18.1095 25.8784L17.8848 25.5381C14.9198 21.0479 14.3872 15.3753 16.4642 10.4111C18.5418 5.44746 22.956 1.84517 28.2355 0.804685C33.5154 -0.235272 38.9668 1.42305 42.7716 5.22833C46.5765 9.03366 48.2352 14.4849 47.1953 19.7645C46.155 25.044 42.5527 29.4582 37.589 31.5358C32.6252 33.6128 26.9526 33.0801 22.4619 30.1152L22.1216 29.8906L21.8331 30.1787L15.7249 36.2783L15.3708 36.6318L15.7246 36.9856L22.0286 43.2896L18.0263 47.2929L11.7224 40.989L11.3689 40.6355L11.0153 40.989L4.71142 47.2929L0.707134 43.2893L7.01099 36.9854L7.36454 36.6319L7.01099 36.2783L0.707085 29.9744ZM23.9255 24.0752L23.9256 24.0753C25.8926 26.0417 28.5594 27.1461 31.3406 27.1461C34.1214 27.1461 36.7886 26.0417 38.7551 24.0752C40.7221 22.1082 41.8265 19.4415 41.8265 16.6602C41.8265 13.8794 40.7219 11.2122 38.755 9.24573C36.7885 7.2787 34.1212 6.17427 31.3406 6.17427C28.5592 6.17427 25.8924 7.2789 23.9256 9.24577C21.9591 11.2122 20.8547 13.8796 20.8547 16.6602C20.8547 19.4416 21.9591 22.1083 23.9255 24.0752Z" fill="white" stroke="#8F2736"/>
</svg>
