<svg width="49" height="48" viewBox="0 0 49 48" fill="none" xmlns="http://www.w3.org/2000/svg">
<path d="M17.9735 48C22.3506 48.0068 26.57 46.3662 29.7933 43.4041C33.0159 40.4421 35.0062 36.376 35.368 32.0139C35.7298 27.6514 34.437 23.3128 31.7462 19.8601L44.1552 7.45104V15.2725C44.1552 16.0521 44.5711 16.7723 45.246 17.1623C45.921 17.5519 46.7528 17.5519 47.4277 17.1623C48.1026 16.7723 48.5185 16.0521 48.5185 15.2725V2.18167C48.5185 1.60297 48.2886 1.0482 47.8796 0.638822C47.4702 0.229811 46.9155 0 46.3368 0H33.2459C32.4663 0 31.7461 0.415859 31.3561 1.09081C30.9665 1.76578 30.9665 2.59752 31.3561 3.27242C31.7461 3.94739 32.4663 4.36323 33.2459 4.36323H41.0674L28.6584 16.7723C25.7222 14.4863 22.1324 13.1985 18.4126 13.0969C14.6928 12.9953 11.0378 14.0853 7.98183 16.2073C4.92506 18.3296 2.62666 21.3735 1.42199 24.8941C0.217415 28.4147 0.169103 32.2285 1.28502 35.7788C2.40057 39.3286 4.62183 42.4291 7.62376 44.6276C10.6261 46.8263 14.2525 48.0077 17.9737 47.9997L17.9735 48ZM17.9735 17.455C21.4454 17.455 24.7749 18.8342 27.2301 21.2891C29.685 23.7443 31.0642 27.0739 31.0642 30.5457C31.0642 34.0175 29.685 37.3475 27.2301 39.8023C24.7749 42.2575 21.4453 43.6367 17.9735 43.6367C14.5017 43.6367 11.1717 42.2575 8.71689 39.8023C6.26167 37.3475 4.88245 34.0175 4.88245 30.5457C4.88245 27.0739 6.26167 23.7443 8.71689 21.2891C11.1717 18.8342 14.5017 17.455 17.9735 17.455Z" fill="white"/>
</svg>
