<svg width="105" height="40" viewBox="0 0 105 40" fill="none" xmlns="http://www.w3.org/2000/svg">
<path d="M44.9613 27.0865C44.0914 27.5563 43.3002 27.9296 42.5728 28.3923C40.7992 29.5159 38.8345 29.5499 36.864 29.2462C36.2904 29.1569 35.6117 28.6656 35.3098 28.1744C34.5899 26.9972 33.6994 27.1365 32.8932 27.8332C31.2978 29.2122 29.4398 29.4873 27.4132 29.3694C24.8953 29.223 23.2886 26.7257 24.5148 24.5928C26.4439 21.2434 28.5568 17.9833 30.561 14.6785C32.6945 11.1505 34.8543 7.63318 36.8772 4.04619C37.9121 2.20983 38.8982 0.587823 41.521 1.02905C42.8671 1.25592 43.1765 1.71858 42.4584 2.87077C39.3182 7.95293 36.1179 13.0011 33.0188 18.1065C31.6315 20.3913 30.411 22.7707 29.1643 25.1322C29.0105 25.4234 29.033 26.1022 29.198 26.1808C29.3963 26.2696 29.6112 26.3197 29.8301 26.3283C30.049 26.3369 30.2676 26.3038 30.4729 26.2308C33.66 24.8125 35.8535 22.3169 37.7265 19.6213C39.7287 16.7453 41.3692 13.6424 43.2796 10.7057C44.4514 8.90326 46.3149 10.0108 48.1541 9.74642C47.9422 10.4931 47.9066 11.0308 47.6535 11.4506C45.0513 15.7718 42.3853 20.0608 39.8225 24.4034C39.5206 24.9125 39.7344 25.6967 39.7081 26.3523C40.2706 26.2523 40.8967 26.2826 41.3654 26.0325C44.4157 24.4123 46.6767 21.9704 48.5403 19.2444C50.2951 16.6739 51.8024 13.9479 53.3904 11.2773C53.591 10.9415 53.6322 10.5199 53.7766 10.0269L51.0431 9.7625C51.1594 8.04404 52.2768 7.56172 53.6585 7.60102C55.1583 7.64389 56.0545 7.08833 56.6263 5.75929C57.0894 4.68748 57.7849 3.69428 58.3961 2.67785C59.1779 1.37739 60.9477 0.655706 62.4775 1.07014C63.9061 1.45778 63.4674 2.44741 63.0756 3.27092C62.755 3.9408 62.1757 4.49278 61.8007 5.14301C61.4558 5.74322 61.2289 6.40774 60.9158 7.12406L63.2949 8.35665C62.83 9.78572 61.827 9.98043 60.6871 9.89111C59.4891 9.79822 58.7467 10.2484 58.1243 11.272C55.447 15.7218 52.648 20.1037 49.9708 24.5534C49.6877 25.025 49.9201 25.7771 49.9126 26.3987C50.4207 26.3398 51.0019 26.4113 51.4256 26.2005C54.7665 24.5267 57.0762 21.8614 59.0335 18.8675C60.4471 16.7042 61.7895 14.4927 63.3287 12.4134C65.2579 9.80537 69.2418 8.58172 71.9021 9.60173C74.4144 10.5646 75.4399 12.7296 74.2213 15.0251C73.3978 16.5842 72.3717 18.0384 71.1672 19.3534C69.2924 21.397 66.7914 22.2848 63.9005 22.0901C62.0351 21.9632 61.1839 22.6867 61.0883 24.3927C61.0246 25.5199 62.3669 26.6881 63.8724 26.6185C66.3321 26.5041 68.2369 25.2037 70.1473 23.8496C74.2494 20.945 76.1167 16.5578 78.6008 12.576C80.6237 9.33378 82.5754 6.04869 84.5795 2.79575C85.4344 1.40955 86.698 0.811119 88.4191 1.0094C89.7315 1.16124 89.9752 1.84363 89.4221 2.79575C87.7348 5.67534 85.98 8.51206 84.2514 11.3702C81.5555 15.8361 78.8426 20.2805 76.1898 24.7678C75.9686 25.1447 76.1898 25.7592 76.2067 26.263C76.7016 26.2219 77.2922 26.3326 77.6803 26.1165C80.9874 24.2748 83.4921 21.6756 85.4194 18.5352C87.1267 15.7438 88.8497 12.9601 90.5882 10.1841C90.6648 10.0795 90.764 9.99175 90.8791 9.92673C90.9942 9.86172 91.1226 9.82095 91.2557 9.80716C92.4218 9.76965 93.5917 9.78929 95.1571 9.78929C94.5947 11.0201 94.261 11.9919 93.7323 12.8547C91.6363 16.2862 89.4315 19.6589 87.3786 23.1137C86.938 23.855 86.9736 24.8536 86.788 25.7342C87.5773 25.4341 88.4154 25.2144 89.1484 24.8196C92.7218 22.8957 94.3547 19.4713 96.3045 16.2952C97.1819 14.8661 98.0668 13.437 98.9292 12.0079C100.393 9.53742 101.366 9.17122 104.79 10.1341L94.291 27.283L94.6659 27.6706C96.0833 26.6345 97.5494 25.6503 98.9067 24.5481C100.056 23.612 101.061 22.517 102.171 21.5327C102.743 21.0236 103.253 20.2394 104.257 21.0772C105.262 21.915 104.668 22.5206 104.102 23.1119C100.888 26.4666 97.3525 29.3641 92.7761 31.0057C91.9006 31.3201 91.1976 32.274 90.6089 33.0636C89.3265 34.7785 88.3104 36.6881 86.9155 38.3047C85.92 39.4587 84.4295 40.0643 82.7122 39.9946C80.9649 39.9232 79.69 39.2033 78.9176 37.7528C78.1846 36.3719 79.0264 35.2036 79.8157 34.1979C81.1824 32.4527 83.1228 31.4613 85.2938 30.7735C86.5499 30.3734 87.6936 29.6463 88.8878 29.0675L88.6797 28.5173C88.3047 28.5602 87.9167 28.5924 87.5398 28.6495C86.1375 28.8657 84.7426 29.1658 83.3309 29.2658C82.9128 29.2944 82.2529 28.8639 82.0467 28.4763C81.3774 27.2258 80.4793 27.3384 79.5832 28.0422C77.9146 29.3498 75.9779 29.6017 73.9963 29.2926C73.2014 29.1658 72.309 28.5388 71.8365 27.8903C71.2291 27.0508 71.006 26.5542 69.8305 27.3348C67.0539 29.1801 63.8611 29.8946 60.5502 29.2265C59.3822 28.9907 58.0436 28.1118 57.4231 27.1526C56.5194 25.7539 55.9907 26.1165 55.014 26.9096C53.1204 28.4495 51.1088 29.616 48.3847 29.4355C46.7124 29.3284 45.8743 28.4941 44.9613 27.0865ZM63.9567 19.1944C64.4742 19.3998 64.5736 19.4713 64.6767 19.4767C67.3351 19.6267 70.7623 16.4899 70.6873 13.8639C70.6629 13.0172 70.1811 12.4099 69.0243 12.8404C65.944 13.9836 65.4322 16.8168 63.9567 19.1944ZM83.1603 36.304C84.7314 35.9736 85.4101 35.0197 85.0595 33.646C84.0358 34.2998 82.7047 34.682 83.1603 36.304Z" fill="white"/>
<path d="M13.5221 9.50296C13.6477 8.00422 13.6983 6.45367 13.927 4.92634C14.3151 2.32542 17.1029 0.117495 19.887 0.0460408C22.163 -0.0129087 24.2759 0.0656893 26.1526 1.73056C28.1642 3.51691 28.198 8.2811 26.4675 9.69589C25.9801 10.0942 24.9508 10.4712 24.5346 10.2461C23.6572 9.77091 22.7367 8.99563 23.3329 7.74519C23.5635 7.26109 23.9384 6.82165 24.0828 6.31611C24.4053 5.14248 23.9703 3.88847 22.896 3.59194C21.728 3.2704 20.0595 3.25789 19.1071 3.84382C17.0204 5.12463 16.8404 7.85059 18.3215 9.80128C18.6159 10.1907 19.0133 10.5301 19.2214 10.9553C19.4295 11.3804 19.7089 12.0699 19.512 12.304C19.1091 12.7681 18.5374 13.0704 17.911 13.1507C16.7861 13.2203 15.6612 13.0721 14.5363 12.972C9.41249 12.4844 5.80351 16.7002 4.5174 20.1371C3.26129 23.5044 4.17806 26.1464 6.75216 28.3543C9.76308 30.9427 15.4606 30.7015 18.0422 27.0842C19.2571 25.3836 20.1232 23.5937 19.2083 21.4054C18.7865 20.3979 18.7434 19.2028 20.1776 18.6919C21.2087 18.3239 21.9774 18.558 22.5342 19.5976C24.4821 23.2328 23.1716 27.1681 20.2376 30.1371C15.0594 35.371 4.16494 34.5529 0.927161 27.6558C0.0272586 25.7391 -0.165844 23.6919 0.126625 21.4411C0.630945 17.5326 2.67447 14.6637 5.86163 12.6594C8.17888 11.2053 11.0136 10.5033 13.5221 9.50296Z" fill="white"/>
<path d="M50.4077 1.9931C50.3329 1.58732 50.1502 1.20658 49.8771 0.88724C49.6039 0.567902 49.2493 0.320634 48.8473 0.169049C48.4452 0.0174629 48.0091 -0.0333786 47.5805 0.0213839C47.152 0.0761465 46.7453 0.234683 46.3994 0.48185C44.6896 1.82876 45.6495 3.46862 46.0638 4.74943C46.2736 5.45886 46.408 6.18658 46.465 6.92163C46.4723 6.98255 46.4934 7.04124 46.527 7.09358C46.5605 7.14592 46.6056 7.19065 46.6592 7.22466C46.7127 7.25868 46.7734 7.28115 46.837 7.29052C46.9006 7.29989 46.9656 7.29592 47.0275 7.2789C47.762 7.0388 48.5255 6.88815 49.2997 6.83052C50.6983 6.71798 52.6856 6.92341 53.3343 4.95129C53.8967 3.45969 52.5244 1.6787 50.4171 1.9931H50.4077Z" fill="#E4BC28"/>
</svg>
