<svg width="36" height="34" viewBox="0 0 36 34" fill="none" xmlns="http://www.w3.org/2000/svg">
<path d="M35.3887 13.7578L27.6025 21.1581L29.4412 31.6101C29.5212 32.0671 29.3287 32.529 28.9437 32.802C28.7262 32.9568 28.4675 33.0348 28.2087 33.0348C28.01 33.0348 27.81 32.9885 27.6275 32.8946L18 27.9599L8.3737 32.8934C7.9537 33.1104 7.44245 33.075 7.05745 32.8008C6.67245 32.5278 6.47995 32.0659 6.55995 31.6089L8.3987 21.1569L0.611202 13.7578C0.271202 13.4336 0.147452 12.9486 0.294952 12.5086C0.442452 12.0686 0.833702 11.7457 1.30495 11.6786L12.0662 10.1552L16.8787 0.646522C17.3 -0.185885 18.7 -0.185885 19.1212 0.646522L23.9337 10.1552L34.695 11.6786C35.1662 11.7457 35.5575 12.0674 35.705 12.5086C35.8525 12.9498 35.7287 13.4324 35.3887 13.7578Z" fill="#E4BC28"/>
</svg>
