<?xml version="1.0" encoding="UTF-8" standalone="no"?>
<!-- Created with Inkscape (http://www.inkscape.org/) -->

<svg
   version="1.1"
   id="svg66"
   width="241.01147"
   height="92.034729"
   viewBox="0 0 241.01147 92.034729"
   sodipodi:docname="Elitely2.ai"
   inkscape:export-filename="Elitely2.ai.png"
   inkscape:export-xdpi="96"
   inkscape:export-ydpi="96"
   xmlns:inkscape="http://www.inkscape.org/namespaces/inkscape"
   xmlns:sodipodi="http://sodipodi.sourceforge.net/DTD/sodipodi-0.dtd"
   xmlns="http://www.w3.org/2000/svg"
   xmlns:svg="http://www.w3.org/2000/svg">
  <defs
     id="defs70">
    <clipPath
       clipPathUnits="userSpaceOnUse"
       id="clipPath954">
      <path
         d="M 0,681 H 1442 V 0 H 0 Z"
         id="path952" />
    </clipPath>
  </defs>
  <sodipodi:namedview
     id="namedview68"
     pagecolor="#ffffff"
     bordercolor="#000000"
     borderopacity="0.25"
     inkscape:showpageshadow="2"
     inkscape:pageopacity="0.0"
     inkscape:pagecheckerboard="0"
     inkscape:deskcolor="#d1d1d1"
     showgrid="false" />
  <g
     id="g610"
     inkscape:groupmode="layer"
     inkscape:label="Page 2"
     transform="matrix(1.3333333,0,0,-1.3333333,-1417.8444,354.05725)">
    <g
       id="g948">
      <g
         id="g950"
         clip-path="url(#clipPath954)">
        <g
           id="g956"
           transform="translate(1209.976,207.5004)">
          <path
             d="M 0,0 C -0.795,-0.506 -1.571,-0.933 -2.271,-1.461 -3.273,-2.218 -3.519,-3.191 -3.13,-4.421 -0.542,-4.053 0.68,-2.129 0,0 m -36.276,25.08 c 1.069,-0.628 1.786,-0.73 3.093,-0.375 3.233,0.877 5.619,2.877 7.355,5.687 0.755,1.221 1.19,2.551 1.091,4.018 -0.086,1.284 -0.946,1.97 -2.181,1.656 -2.045,-0.519 -3.807,-1.607 -4.938,-3.351 -1.599,-2.465 -2.96,-5.084 -4.42,-7.635 M -60.439,12.656 c 1.13,-0.058 2.156,0.035 3.155,0.576 3.846,2.086 7.057,4.919 9.643,8.406 2.085,2.81 3.945,5.787 5.909,8.687 1.405,2.074 2.764,4.182 4.24,6.204 2.258,3.094 5.413,4.764 9.131,5.439 2.569,0.467 5.012,0.151 7.318,-1.151 3.132,-1.769 4.248,-5.118 2.63,-8.327 -1.769,-3.509 -3.997,-6.707 -7,-9.282 -2.332,-2 -5.105,-3.022 -8.159,-3.221 -1.294,-0.084 -2.599,0.01 -3.898,-0.019 -2.708,-0.06 -4.512,-2.635 -3.517,-5.081 0.6,-1.475 1.837,-2.277 3.359,-2.569 1.797,-0.344 3.536,0.079 5.191,0.729 3.732,1.465 6.941,3.77 9.859,6.476 2.847,2.639 4.967,5.85 6.956,9.149 3.383,5.612 6.753,11.231 10.137,16.841 1.576,2.612 3.157,5.221 4.765,7.814 1.788,2.884 4.547,3.524 7.453,2.876 1.32,-0.294 1.752,-1.322 1.099,-2.574 C 7.17,52.363 6.416,51.143 5.676,49.919 1.555,43.102 -2.581,36.295 -6.699,29.476 c -2.735,-4.53 -5.423,-9.088 -8.188,-13.598 -0.575,-0.938 -0.392,-1.835 -0.271,-2.776 0.012,-0.094 0.197,-0.233 0.306,-0.238 0.998,-0.038 1.937,0.01 2.871,0.565 4.926,2.927 8.91,6.821 11.971,11.635 3.183,5.005 6.265,10.073 9.38,15.121 0.414,0.671 0.951,1.017 1.755,1.011 1.942,-0.015 3.884,0.006 5.826,0.009 0.163,0 0.325,-0.025 0.656,-0.052 -0.932,-1.91 -1.688,-3.81 -2.731,-5.536 C 11.426,29.913 7.886,24.263 4.349,18.612 3.574,17.374 3.459,15.997 3.254,14.625 3.215,14.368 3.185,14.11 3.146,13.815 c 2.607,0.702 4.956,1.812 7.018,3.522 2.832,2.348 4.871,5.322 6.756,8.425 2.542,4.184 5.087,8.367 7.643,12.543 0.294,0.479 0.649,0.925 1.008,1.359 0.852,1.031 1.926,1.649 3.282,1.785 1.102,0.111 4.146,-0.356 5.266,-0.895 -3.008,-4.912 -6.012,-9.818 -9.015,-14.723 -3.008,-4.914 -6.015,-9.829 -9.052,-14.792 0.177,-0.192 0.364,-0.394 0.587,-0.637 1.196,0.854 2.356,1.715 3.55,2.527 3.226,2.195 6.061,4.843 8.849,7.55 0.54,0.525 1.089,1.047 1.682,1.508 0.718,0.557 1.38,0.538 2.137,0.028 0.171,-0.115 0.333,-0.247 0.486,-0.386 1.037,-0.948 1.103,-1.785 0.146,-2.824 C 32.545,17.78 31.566,16.784 30.567,15.811 27.203,12.538 23.582,9.589 19.441,7.349 17.741,6.429 15.979,5.594 14.173,4.911 12.596,4.315 11.38,3.354 10.441,2.024 8.68,-0.467 6.991,-3.01 5.233,-5.504 4.05,-7.181 2.897,-8.932 0.965,-9.854 c -3.182,-1.52 -6.355,-1.611 -9.4,0.374 -1.098,0.716 -1.846,1.771 -2.327,2.988 -0.567,1.433 -0.145,2.742 0.613,3.974 1.839,2.992 4.442,5.089 7.657,6.441 1.022,0.43 2.106,0.715 3.114,1.171 C 2.558,5.971 4.473,6.896 6.368,7.857 6.949,8.152 6.299,8.508 6.315,8.924 4.642,8.658 3.029,8.386 1.411,8.15 -0.004,7.944 -1.421,7.725 -2.845,7.614 c -0.986,-0.077 -1.688,0.533 -2.251,1.29 -0.101,0.135 -0.168,0.294 -0.261,0.435 -0.907,1.386 -2.05,1.605 -3.479,0.709 -1.034,-0.648 -2.044,-1.367 -3.15,-1.859 -2.312,-1.027 -4.761,-1.078 -7.207,-0.597 -1.46,0.287 -2.589,1.174 -3.502,2.333 -0.221,0.281 -0.413,0.586 -0.633,0.868 -0.722,0.923 -1.317,1.049 -2.342,0.402 -1.676,-1.057 -3.384,-2.042 -5.256,-2.716 -3.801,-1.367 -7.682,-1.677 -11.612,-0.721 -2.096,0.511 -3.784,1.721 -5.059,3.487 -0.317,0.439 -0.66,0.87 -1.05,1.243 -0.452,0.434 -1.035,0.521 -1.563,0.173 -0.831,-0.548 -1.625,-1.153 -2.419,-1.756 -2.169,-1.645 -4.489,-2.995 -7.216,-3.435 -2.023,-0.326 -4.056,-0.439 -5.976,0.529 -1.182,0.596 -2.006,1.57 -2.748,2.628 -0.15,0.215 -0.306,0.424 -0.509,0.703 -1.28,-0.7 -2.591,-1.322 -3.803,-2.098 -2.785,-1.782 -5.814,-2.125 -9.01,-1.775 -1.233,0.136 -2.373,0.425 -3.256,1.353 -0.245,0.257 -0.455,0.551 -0.66,0.843 -1.091,1.553 -2.361,1.76 -3.83,0.538 -1.461,-1.215 -3.064,-2.12 -4.935,-2.496 -2.049,-0.411 -4.126,-0.559 -6.164,-0.031 -2.777,0.719 -4.478,3.163 -4.268,5.944 0.089,1.172 0.697,2.135 1.285,3.1 3.471,5.692 6.979,11.362 10.415,17.074 3.668,6.099 7.25,12.248 10.919,18.346 0.653,1.085 1.442,2.134 2.355,3.004 1.45,1.382 3.294,1.535 5.193,1.165 0.457,-0.09 0.917,-0.215 1.342,-0.402 0.775,-0.342 1.042,-0.934 0.69,-1.711 -0.38,-0.835 -0.853,-1.633 -1.338,-2.415 -4.008,-6.467 -8.054,-12.912 -12.036,-19.395 -2.226,-3.625 -4.387,-7.291 -6.508,-10.978 -1.238,-2.153 -2.363,-4.373 -3.48,-6.592 -0.211,-0.421 -0.182,-0.981 -0.185,-1.478 -10e-4,-0.152 0.235,-0.384 0.41,-0.445 0.758,-0.263 1.512,-0.208 2.248,0.137 3.439,1.612 6.289,3.98 8.76,6.831 3.211,3.706 5.727,7.887 8.253,12.063 1.54,2.545 3.112,5.071 4.656,7.614 0.918,1.512 2.308,2.028 3.989,1.935 1.016,-0.057 2.029,-0.163 3.045,-0.225 0.464,-0.028 0.932,-0.005 1.571,-0.005 -0.365,-1.067 -0.548,-2.182 -1.085,-3.085 -3.65,-6.133 -7.376,-12.22 -11.074,-18.324 -0.761,-1.256 -1.523,-2.511 -2.244,-3.79 -0.185,-0.33 -0.286,-0.745 -0.298,-1.126 -0.024,-0.71 0.046,-1.424 0.079,-2.181 1.131,0.074 2.193,0.14 3.188,0.696 3.672,2.054 6.744,4.798 9.388,8.045 3.178,3.901 5.675,8.249 8.227,12.561 0.882,1.49 1.79,2.967 2.612,4.49 0.356,0.661 0.524,1.423 0.805,2.216 -1.474,0.147 -2.798,0.296 -4.124,0.401 -0.455,0.036 -0.66,0.095 -0.58,0.655 0.288,2.001 1.677,3.155 3.981,3.22 0.622,0.017 1.251,-0.021 1.864,0.06 1.717,0.228 2.806,1.263 3.603,2.758 1.06,1.991 2.148,3.975 3.357,5.877 1.488,2.34 4.892,3.387 7.348,2.4 1.105,-0.443 1.519,-1.213 1.12,-2.34 -0.279,-0.79 -0.601,-1.612 -1.104,-2.266 -1.32,-1.721 -2.403,-3.55 -3.077,-5.701 0.439,-0.239 0.924,-0.51 1.417,-0.767 0.733,-0.384 1.463,-0.779 2.213,-1.127 0.366,-0.17 0.39,-0.358 0.248,-0.699 -0.681,-1.64 -2.107,-2.478 -4.077,-2.241 -2.158,0.259 -3.639,-0.62 -4.744,-2.432 -3.628,-5.949 -7.299,-11.872 -10.951,-17.807 -0.907,-1.476 -1.779,-2.974 -2.715,-4.431 -0.441,-0.687 -0.636,-1.394 -0.551,-2.192 0.05,-0.466 0.1,-0.931 0.155,-1.445"
             style="fill:#8d1535;fill-opacity:1;fill-rule:nonzero;stroke:none"
             id="path958" />
        </g>
        <g
           id="g960"
           transform="translate(1083.0972,207.6127)">
          <path
             d="m 0,0 c -4.466,0.158 -8.632,1.184 -12.367,3.682 -3.862,2.583 -6.295,6.17 -7.032,10.744 -0.84,5.219 -0.026,10.215 2.761,14.781 2.416,3.96 5.904,6.73 10.116,8.545 2.81,1.211 5.723,2.186 8.593,3.257 1.569,0.586 1.557,0.578 1.682,2.234 0.135,1.804 0.303,3.605 0.452,5.407 0.243,2.939 1.723,5.167 4.01,6.909 2.089,1.591 4.451,2.388 7.095,2.371 2.058,-0.014 4.104,-0.031 6.096,-0.656 3.86,-1.211 6.09,-3.794 6.602,-7.821 0.282,-2.218 0.175,-4.395 -0.741,-6.485 -0.727,-1.659 -2.052,-2.492 -3.763,-2.815 -0.181,-0.034 -0.381,-0.03 -0.562,0.007 -2.173,0.432 -3.288,2.784 -2.278,4.726 0.465,0.893 0.972,1.792 1.241,2.75 0.293,1.039 0.052,2.092 -0.582,3.012 -0.391,0.568 -0.933,0.939 -1.593,1.101 -1.59,0.392 -3.188,0.486 -4.814,0.167 -2.65,-0.52 -4.892,-3.259 -4.623,-6.558 0.16,-1.956 0.957,-3.623 2.296,-5.037 0.718,-0.759 1.174,-1.649 1.452,-2.645 0.146,-0.522 0.044,-0.943 -0.39,-1.308 -0.804,-0.678 -1.697,-1.154 -2.763,-1.11 -1.918,0.079 -3.834,0.215 -5.75,0.334 -3.409,0.211 -6.559,-0.592 -9.35,-2.558 -4.469,-3.148 -7.395,-7.375 -8.421,-12.778 -0.647,-3.405 0.4,-6.391 2.55,-9.095 4.896,-6.154 13.804,-6.383 19.059,-2.345 2.663,2.046 4.409,4.775 5.019,8.128 0.253,1.386 -0.026,2.734 -0.553,4.034 -0.334,0.825 -0.638,1.676 -0.394,2.574 0.124,0.458 0.316,0.945 0.619,1.297 1.596,1.847 4.399,1.499 5.529,-0.652 2.276,-4.333 2.096,-8.67 -0.109,-12.939 C 16.077,5.429 11.286,1.899 4.863,0.628 3.263,0.312 1.622,0.204 0,0"
             style="fill:#8d1535;fill-opacity:1;fill-rule:nonzero;stroke:none"
             id="path962" />
        </g>
        <g
           id="g964"
           transform="translate(1146.0803,265.4906)">
          <path
             d="m 0,0 c 1.873,0.005 3.469,-1.097 4.048,-2.856 0.148,-0.449 0.359,-0.566 0.802,-0.543 1.608,0.085 2.929,-0.448 3.925,-1.781 1.5,-2.007 0.245,-4.801 -1.478,-5.659 -1.186,-0.591 -2.461,-0.688 -3.733,-0.742 -1.625,-0.068 -3.221,-0.256 -4.783,-0.717 -0.92,-0.272 -1.195,-0.126 -1.293,0.801 -0.196,1.849 -0.707,3.609 -1.348,5.345 -0.206,0.558 -0.335,1.158 -0.406,1.751 C -4.562,-1.904 -2.376,0.084 0,0"
             style="fill:#dfba14;fill-opacity:1;fill-rule:nonzero;stroke:none"
             id="path966" />
        </g>
        <g
           id="g968"
           transform="translate(1209.976,207.5004)">
          <path
             d="m 0,0 c 0.68,-2.129 -0.542,-4.053 -3.13,-4.421 -0.389,1.23 -0.143,2.203 0.859,2.96 0.7,0.528 1.476,0.955 2.271,1.461"
             style="fill:#8d1535;fill-opacity:1;fill-rule:nonzero;stroke:none"
             id="path970" />
        </g>
      </g>
    </g>
  </g>
</svg>
