<?xml version="1.0" encoding="UTF-8" standalone="no"?>
<!-- Created with Inkscape (http://www.inkscape.org/) -->

<svg
   version="1.1"
   id="svg66"
   width="172.93018"
   height="160.024"
   viewBox="0 0 172.93017 160.024"
   xmlns="http://www.w3.org/2000/svg"
   xmlns:svg="http://www.w3.org/2000/svg">
  <defs
     id="defs70">
    <clipPath
       clipPathUnits="userSpaceOnUse"
       id="clipPath886">
      <path
         d="m 1088.452,582.799 c 0,-33.141 29.113,-60.008 65.027,-60.008 v 0 c 35.912,0 65.026,26.867 65.026,60.008 v 0 c 0,33.143 -29.114,60.01 -65.026,60.01 v 0 c -35.914,0 -65.027,-26.867 -65.027,-60.01"
         id="path884" />
    </clipPath>
  </defs>
  <g
     id="g610"
     transform="matrix(1.3333333,0,0,-1.3333333,-1451.7433,857.07864)">
    <g
       id="g880">
      <g
         id="g882"
         clip-path="url(#clipPath886)">
        <g
           id="g888"
           transform="translate(1125.5994,554.9046)">
          <path
             d="m 0,0 v 1.916 c 0,12.808 0.002,25.616 -0.003,38.425 0,2.312 -0.596,2.866 -3.102,2.87 -5.264,0.011 -10.529,0.009 -15.793,0.002 -2.683,-0.004 -3.232,-0.528 -3.232,-3.05 -0.002,-12.759 -0.001,-25.518 -0.001,-38.277 v -1.887 c -1.816,0 -3.451,0.004 -5.086,-0.001 -1.313,-0.003 -2.433,-0.37 -3.001,-1.558 -0.557,-1.164 -0.177,-2.166 0.678,-3.115 5.202,-5.771 10.375,-11.564 15.575,-17.337 1.922,-2.134 3.565,-2.128 5.48,0.001 5.161,5.738 10.297,11.496 15.474,17.223 0.896,0.99 1.355,2.022 0.774,3.235 C 7.169,-0.312 5.967,0.015 4.596,0.003 3.124,-0.01 1.651,0 0,0 M 8.893,52.876 V 50.96 c 0,-10.211 -0.001,-20.422 10e-4,-30.633 10e-4,-4.309 2.181,-6.342 6.8,-6.344 6.597,-0.002 13.193,10e-4 19.79,-0.001 2.529,-10e-4 3.603,-1.318 2.969,-3.49 -2.093,-7.18 -0.713,-13.583 5.024,-19.025 0.454,-0.43 0.779,-1.169 0.792,-1.771 0.074,-3.386 0.026,-6.774 0.033,-10.161 0.007,-3.634 2.176,-5.71 6.073,-5.725 6.968,-0.027 13.937,-0.028 20.905,0.001 3.818,0.015 6.026,2.056 6.036,5.609 0.028,10.064 0.021,20.128 0.003,30.192 -0.011,6.15 -2.458,11.366 -7.171,15.698 -3.731,3.43 -7.465,6.858 -11.147,10.332 -0.463,0.436 -0.865,1.149 -0.873,1.739 -0.069,4.859 -0.041,9.72 -0.031,14.58 10e-4,0.277 0.1,0.555 0.169,0.915 3.728,0 7.395,-0.029 11.062,0.006 5.636,0.055 9.81,3.742 9.984,8.943 0.123,3.678 0.122,7.366 0,11.044 -0.173,5.18 -4.219,8.883 -9.818,8.894 -22.395,0.044 -44.791,0.047 -67.187,-0.002 -5.648,-0.012 -9.694,-3.895 -9.74,-9.092 -0.03,-3.486 -0.022,-6.971 -0.002,-10.457 0.031,-5.429 4.163,-9.271 10.028,-9.333 2.017,-0.021 4.035,-0.003 6.3,-0.003 M -36.792,-29.66 V 85.249 c 0.753,2.056 2.26,3.414 4.47,4.125 H 92.195 c 2.21,-0.711 3.711,-2.076 4.47,-4.125 V -29.66 c -0.76,-2.049 -2.264,-3.411 -4.47,-4.125 H -32.322 c -2.206,0.714 -3.716,2.07 -4.47,4.125"
             style="fill:#8d1535;fill-opacity:1;fill-rule:nonzero;stroke:none"
             id="path890" />
        </g>
        <g
           id="g892"
           transform="translate(1183.6871,611.8918)">
          <path
             d="m 0,0 c 3.818,0 7.379,-0.011 10.94,0.003 3.67,0.014 5.837,2.01 5.863,5.417 0.024,2.995 -0.135,5.997 0.042,8.984 0.212,3.591 -1.625,6.377 -6.844,6.347 -21.442,-0.126 -42.886,-0.053 -64.328,-0.053 -0.532,0 -1.065,0.008 -1.596,-0.019 -3.001,-0.149 -5.094,-2.066 -5.131,-4.815 -0.049,-3.682 -0.047,-7.366 0.001,-11.048 0.032,-2.472 1.893,-4.514 4.543,-4.728 2.361,-0.191 4.755,-0.04 7.316,-0.04 0,3.074 -0.007,6.054 0.002,9.034 0.01,3.853 2.245,5.941 6.379,5.942 12.132,0.006 24.263,0.005 36.395,0.001 4.213,-0.002 6.401,-2.007 6.416,-5.876 C 0.009,6.164 0,3.179 0,0 m 0,-26.515 c 0,-3.763 0.126,-7.233 -0.049,-10.69 -0.102,-1.994 0.471,-3.393 2.221,-4.629 2.077,-1.467 2.309,-2.685 1.196,-3.773 -1.092,-1.067 -2.251,-0.834 -4.226,0.815 -7.377,6.158 -14.753,12.318 -22.151,18.455 -0.616,0.512 -1.341,1.006 -2.112,1.246 -1.495,0.467 -3.052,-0.171 -3.857,-1.389 -0.875,-1.324 -0.645,-2.85 0.745,-4.145 4.119,-3.836 8.219,-7.692 12.435,-11.436 1.476,-1.311 1.783,-2.469 1,-4.267 -2.824,-6.477 -1.247,-12.293 4.26,-17.133 0.672,-0.59 1.135,-1.676 1.164,-2.548 0.123,-3.728 0.097,-7.462 0.02,-11.192 -0.03,-1.415 0.534,-1.911 2.045,-1.901 6.702,0.043 13.406,0.047 20.109,-0.002 1.556,-0.012 2.031,0.572 2.026,1.933 -0.035,9.819 -0.019,19.638 -0.02,29.458 0,5.224 -2.017,9.654 -6.083,13.306 -2.515,2.26 -4.97,4.578 -7.458,6.865 -0.319,0.292 -0.675,0.55 -1.265,1.027 m -4.659,-9.515 c 0.106,0.293 0.191,0.419 0.191,0.544 0.009,14.971 0.009,29.942 0.025,44.913 10e-4,1.176 -0.639,1.5 -1.803,1.498 -12.234,-0.018 -24.468,-0.02 -36.702,10e-4 -1.306,0.002 -1.801,-0.498 -1.8,-1.676 0.016,-15.462 0.018,-30.924 -0.001,-46.386 -10e-4,-1.363 0.697,-1.78 2.076,-1.771 5.265,0.036 10.531,0.014 15.797,0.017 0.294,0 0.589,0.029 1.32,0.068 -1.845,1.676 -3.433,3.096 -4.991,4.542 -0.711,0.66 -1.456,1.313 -2.028,2.07 -2.244,2.969 -1.68,7.049 1.249,9.496 3.008,2.512 7.471,2.567 10.613,0 4.739,-3.871 9.401,-7.822 14.099,-11.736 0.614,-0.511 1.245,-1.007 1.955,-1.58 m -44.535,31.918 c -2.266,0 -4.284,-0.018 -6.301,0.004 -5.864,0.062 -9.997,3.904 -10.028,9.333 -0.02,3.485 -0.028,6.971 0.002,10.456 0.046,5.198 4.092,9.081 9.741,9.093 22.395,0.049 44.791,0.046 67.187,0.002 5.598,-0.011 9.645,-3.714 9.817,-8.894 0.122,-3.679 0.123,-7.366 0,-11.044 C 21.05,-0.363 16.876,-4.05 11.24,-4.105 7.573,-4.141 3.906,-4.112 0.178,-4.112 0.109,-4.472 0.01,-4.749 0.009,-5.026 c -0.01,-4.86 -0.038,-9.721 0.031,-14.58 0.008,-0.59 0.41,-1.303 0.873,-1.739 3.682,-3.475 7.416,-6.902 11.147,-10.332 4.713,-4.332 7.16,-9.549 7.171,-15.698 0.018,-10.064 0.025,-20.128 -0.003,-30.192 -0.01,-3.553 -2.218,-5.594 -6.035,-5.61 -6.969,-0.029 -13.938,-0.027 -20.906,0 -3.897,0.015 -6.066,2.09 -6.073,5.725 -0.007,3.387 0.041,6.775 -0.032,10.161 -0.013,0.602 -0.338,1.34 -0.792,1.771 -5.738,5.442 -7.118,11.845 -5.024,19.025 0.633,2.172 -0.441,3.489 -2.97,3.49 -6.597,0.002 -13.193,-10e-4 -19.789,0.001 -4.62,0.002 -6.8,2.035 -6.801,6.344 -0.002,10.211 0,20.422 0,30.633 z"
             style="fill:#fddfec;fill-opacity:1;fill-rule:nonzero;stroke:none"
             id="path894" />
        </g>
        <g
           id="g896"
           transform="translate(1101.3328,550.8112)">
          <path
             d="m 0,0 c 4.501,-5.018 8.72,-9.722 13.046,-14.544 4.338,4.84 8.549,9.538 12.965,14.464 -0.811,0.034 -1.267,0.067 -1.724,0.07 -3.838,0.028 -4.465,0.6 -4.465,4.102 -10e-4,12.423 0,24.847 0,37.271 V 43.12 H 6.589 V 41.3 c 0,-12.473 0,-24.946 0,-37.419 0,-0.442 0.025,-0.886 -0.02,-1.325 C 6.405,0.988 5.371,0.073 3.649,0.007 2.596,-0.033 1.539,0 0,0 m 24.267,4.093 c 1.651,0 3.124,-0.01 4.596,0.003 1.37,0.013 2.573,-0.315 3.167,-1.556 0.58,-1.213 0.121,-2.244 -0.775,-3.235 -5.177,-5.726 -10.312,-11.484 -15.474,-17.222 -1.915,-2.129 -3.557,-2.135 -5.479,-10e-4 -5.2,5.772 -10.373,11.566 -15.575,17.337 -0.855,0.948 -1.235,1.951 -0.678,3.115 0.568,1.187 1.688,1.554 3.001,1.558 1.634,0.004 3.269,0.001 5.085,0.001 v 1.886 c 0,12.759 0,25.519 0.001,38.278 0,2.521 0.549,3.045 3.232,3.049 5.265,0.007 10.529,0.009 15.794,-10e-4 2.505,-0.005 3.101,-0.559 3.102,-2.871 0.005,-12.808 0.002,-25.616 0.003,-38.425 z"
             style="fill:#fddfec;fill-opacity:1;fill-rule:nonzero;stroke:none"
             id="path898" />
        </g>
        <g
           id="g900"
           transform="translate(1144.9808,606.0437)">
          <path
             d="m 0,0 c 0,-2.598 -0.018,-5.196 0.007,-7.794 0.015,-1.522 0.823,-2.337 2.213,-2.332 1.355,0.005 2.215,0.854 2.223,2.356 C 4.469,-2.623 4.468,2.524 4.444,7.671 4.437,9.224 3.498,10.147 2.116,10.094 0.8,10.044 0.015,9.162 0.004,7.647 -0.014,5.098 0,2.549 0,0 m 27.833,0.052 c 0,2.061 0.018,4.122 -0.006,6.183 -0.02,1.639 -0.752,2.415 -2.463,2.443 -3.19,0.052 -6.381,0.051 -9.571,0 C 14.141,8.652 13.368,7.899 13.356,6.366 13.325,2.244 13.325,-1.878 13.355,-6 c 0.011,-1.637 0.769,-2.328 2.536,-2.345 3.136,-0.029 6.274,-0.03 9.411,0 1.738,0.017 2.5,0.744 2.523,2.361 0.029,2.012 0.007,4.024 0.008,6.036 m 6.214,-30.234 c -0.71,0.573 -1.34,1.069 -1.954,1.581 -4.698,3.914 -9.361,7.864 -14.1,11.735 -3.142,2.567 -7.605,2.512 -10.612,0 -2.929,-2.446 -3.494,-6.527 -1.25,-9.496 0.572,-0.757 1.317,-1.41 2.028,-2.07 1.559,-1.446 3.146,-2.866 4.991,-4.542 -0.731,-0.039 -1.025,-0.068 -1.32,-0.068 -5.266,-0.003 -10.532,0.019 -15.797,-0.017 -1.379,-0.009 -2.077,0.408 -2.075,1.771 0.018,15.462 0.017,30.924 10e-4,46.386 -0.002,1.178 0.494,1.678 1.8,1.676 12.233,-0.021 24.467,-0.019 36.701,-0.001 1.165,0.002 1.804,-0.322 1.803,-1.498 -0.016,-14.971 -0.015,-29.942 -0.025,-44.913 0,-0.125 -0.085,-0.25 -0.191,-0.544"
             style="fill:#231f20;fill-opacity:1;fill-rule:nonzero;stroke:none"
             id="path902" />
        </g>
        <g
           id="g904"
           transform="translate(1183.6866,585.3767)">
          <path
             d="m 0,0 c 0.59,-0.477 0.947,-0.735 1.266,-1.027 2.488,-2.287 4.942,-4.605 7.458,-6.865 4.066,-3.652 6.082,-8.082 6.083,-13.306 10e-4,-9.819 -0.015,-19.639 0.02,-29.458 0.005,-1.361 -0.47,-1.945 -2.026,-1.933 -6.703,0.049 -13.407,0.045 -20.11,0.002 -1.51,-0.009 -2.075,0.487 -2.045,1.901 0.078,3.73 0.104,7.464 -0.02,11.192 -0.029,0.872 -0.491,1.958 -1.163,2.549 -5.508,4.839 -7.085,10.655 -4.261,17.133 0.784,1.797 0.477,2.956 -0.999,4.266 -4.216,3.745 -8.316,7.6 -12.435,11.436 -1.391,1.295 -1.62,2.822 -0.745,4.145 0.805,1.218 2.362,1.856 3.857,1.389 0.77,-0.24 1.495,-0.734 2.112,-1.245 7.398,-6.138 14.774,-12.297 22.151,-18.456 1.974,-1.649 3.134,-1.882 4.225,-0.815 1.114,1.088 0.881,2.306 -1.196,3.773 -1.75,1.236 -2.322,2.636 -2.221,4.629 C 0.127,-7.233 0,-3.763 0,0"
             style="fill:#231f20;fill-opacity:1;fill-rule:nonzero;stroke:none"
             id="path906" />
        </g>
        <g
           id="g908"
           transform="translate(1183.6871,611.8918)">
          <path
             d="m 0,0 c 0,3.179 0.009,6.164 -0.002,9.149 -0.015,3.869 -2.203,5.874 -6.416,5.876 -12.132,0.004 -24.263,0.005 -36.395,-0.001 -4.134,-10e-4 -6.369,-2.089 -6.379,-5.942 -0.009,-2.98 -0.002,-5.96 -0.002,-9.034 -2.561,0 -4.955,-0.151 -7.316,0.04 -2.65,0.214 -4.511,2.256 -4.543,4.728 -0.048,3.682 -0.05,7.366 -0.001,11.048 0.037,2.749 2.13,4.666 5.131,4.815 0.531,0.027 1.064,0.019 1.596,0.019 21.442,0 42.886,-0.073 64.328,0.053 5.219,0.03 7.056,-2.756 6.844,-6.347 C 16.668,11.417 16.827,8.415 16.803,5.42 16.777,2.013 14.61,0.017 10.94,0.003 7.379,-0.011 3.818,0 0,0"
             style="fill:#231f20;fill-opacity:1;fill-rule:nonzero;stroke:none"
             id="path910" />
        </g>
        <g
           id="g912"
           transform="translate(1101.3328,550.8112)">
          <path
             d="m 0,0 c 1.539,0 2.596,-0.033 3.649,0.007 1.722,0.066 2.756,0.981 2.92,2.549 0.045,0.439 0.02,0.883 0.02,1.325 0,12.473 0,24.946 0,37.419 v 1.82 h 13.233 v -1.757 c 0,-12.424 -10e-4,-24.848 0,-37.271 0,-3.502 0.627,-4.074 4.465,-4.102 0.457,-0.003 0.913,-0.036 1.724,-0.07 C 21.595,-5.006 17.384,-9.704 13.046,-14.544 8.72,-9.722 4.501,-5.018 0,0"
             style="fill:#231f20;fill-opacity:1;fill-rule:nonzero;stroke:none"
             id="path914" />
        </g>
        <path
           d="m 1168.271,610.52 h -5.409 v -8.607 h 5.409 z m 4.542,-4.424 c 0,-2.012 0.022,-4.024 -0.01,-6.036 -0.023,-1.617 -0.785,-2.344 -2.523,-2.361 -3.137,-0.03 -6.275,-0.029 -9.412,0 -1.766,0.016 -2.524,0.707 -2.536,2.345 -0.029,4.121 -0.029,8.244 0,12.365 0.012,1.534 0.785,2.287 2.437,2.313 3.19,0.051 6.381,0.052 9.571,0 1.711,-0.028 2.443,-0.805 2.463,-2.443 0.024,-2.061 0.01,-4.122 0.01,-6.183"
           style="fill:#fffdfe;fill-opacity:1;fill-rule:nonzero;stroke:none"
           id="path916" />
        <g
           id="g918"
           transform="translate(1144.9803,606.0437)">
          <path
             d="M 0,0 C 0,2.549 -0.013,5.098 0.005,7.647 0.016,9.162 0.801,10.044 2.117,10.094 3.499,10.147 4.438,9.224 4.445,7.671 4.468,2.524 4.47,-2.623 4.443,-7.77 4.435,-9.272 3.575,-10.121 2.221,-10.126 0.83,-10.131 0.022,-9.316 0.008,-7.794 -0.018,-5.196 0,-2.598 0,0"
             style="fill:#fffdfe;fill-opacity:1;fill-rule:nonzero;stroke:none"
             id="path920" />
        </g>
        <path
           d="m 1168.271,601.912 h -5.409 v 8.607 h 5.409 z"
           style="fill:#231f20;fill-opacity:1;fill-rule:nonzero;stroke:none"
           id="path922" />
      </g>
    </g>
  </g>
</svg>
